<?xml version="1.0" standalone="no"?><!DOCTYPE svg PUBLIC "-//W3C//DTD SVG 1.1//EN" "http://www.w3.org/Graphics/SVG/1.1/DTD/svg11.dtd"><svg t="1500959381241" class="icon" style="" viewBox="0 0 1024 1024" version="1.1" xmlns="http://www.w3.org/2000/svg" p-id="6059" xmlns:xlink="http://www.w3.org/1999/xlink" width="200" height="200"><defs><style type="text/css"></style></defs><path d="M937.728 838.554l-214.22-216.018c-2.494-2.5-5.249-4.409-7.88-6.488 36.187-55.987 57.317-122.675 57.317-194.508 0-197.347-158.627-357.303-354.43-357.303-195.694 0-354.43 159.957-354.43 357.303 0 197.374 158.736 357.295 354.43 357.295 71.227 0 137.455-21.358 193.076-57.846 2.026 2.714 3.884 5.413 6.337 7.893l214.248 216.045c14.628 14.703 33.678 22.032 52.757 22.032 19.091 0 38.155-7.328 52.77-21.998 29.103-29.409 29.103-77.02 0.025-106.407M418.515 666.008c-133.681 0-242.499-109.685-242.499-244.468 0-134.763 108.819-244.476 242.499-244.476S661.014 286.777 661.014 421.54c0 134.782-108.819 244.468-242.5 244.468" fill="" p-id="6060"></path></svg>